<svg width="445" height="704" viewBox="0 0 445 704" fill="none" xmlns="http://www.w3.org/2000/svg">
<path d="M274.07 457.735L282.055 431.73C272.448 421.157 260.405 413.088 246.971 408.225C260.096 429.968 247.378 458.333 252.678 483.171C254.39 490.905 257.821 498.155 262.716 504.383C267.611 510.611 273.844 515.657 280.955 519.149L293.072 534.162C299.424 523.064 303.295 510.72 304.417 497.982C305.54 485.244 303.888 472.414 299.574 460.375C297.087 453.646 293.763 447.257 289.68 441.358C282.479 449.823 274.07 457.735 274.07 457.735Z" fill="#F2F2F2"/>
<path d="M230.165 461.058L225.714 434.221C212.4 429.042 198.022 427.191 183.83 428.83C205.274 442.437 206.541 473.497 222.362 493.364C227.343 499.523 233.647 504.482 240.806 507.873C247.965 511.264 255.795 513.001 263.716 512.955L281.257 520.989C281.993 508.222 279.953 495.448 275.276 483.546C270.6 471.644 263.399 460.898 254.169 452.047C248.943 447.133 243.118 442.896 236.832 439.438C234.163 450.226 230.165 461.058 230.165 461.058Z" fill="#F2F2F2"/>
<path d="M382.987 382.243L391.188 371.992C392.586 370.244 393.251 368.021 393.041 365.793C392.832 363.564 391.765 361.504 390.065 360.047C388.918 359.064 387.534 358.4 386.049 358.119C384.565 357.839 383.033 357.954 381.607 358.451C380.181 358.948 378.91 359.811 377.922 360.953C376.933 362.096 376.262 363.477 375.975 364.96L373.766 376.375L365.383 399.009L375.442 404.039L382.987 382.243Z" fill="#FFB8B8"/>
<path d="M357.838 411.584L341.363 376.479C340.481 374.685 339.231 373.096 337.694 371.817C336.158 370.537 334.369 369.596 332.444 369.053C330.52 368.511 328.503 368.38 326.524 368.669C324.546 368.958 322.65 369.66 320.961 370.73C317.82 372.719 315.581 375.857 314.723 379.475C313.865 383.092 314.456 386.902 316.368 390.09L343.36 436.354C344.885 438.896 347.18 440.886 349.912 442.036C352.645 443.186 355.672 443.436 358.556 442.749C360.895 442.192 363.05 441.041 364.813 439.406C366.575 437.771 367.886 435.708 368.616 433.418L378.795 401.524L365.383 394.818L357.838 411.584Z" fill="#191919"/>
<path d="M388.924 400.286L378.131 399.381C376.437 399.237 374.869 398.427 373.772 397.128C372.674 395.83 372.136 394.149 372.277 392.454L376.429 342.932C376.573 341.238 377.383 339.67 378.682 338.573C379.98 337.475 381.661 336.938 383.356 337.078L394.149 337.983C395.843 338.127 397.411 338.937 398.508 340.235C399.606 341.534 400.143 343.215 400.003 344.909L395.851 394.431C395.707 396.125 394.897 397.693 393.598 398.791C392.3 399.888 390.619 400.426 388.924 400.286Z" fill="#3F3D56"/>
<path d="M381.881 339.498C380.968 339.422 380.062 339.712 379.362 340.303C378.663 340.895 378.226 341.74 378.148 342.653L373.996 392.174C373.92 393.088 374.21 393.993 374.802 394.693C375.393 395.393 376.238 395.829 377.151 395.907L387.944 396.812C388.857 396.887 389.763 396.598 390.463 396.006C391.162 395.415 391.599 394.57 391.676 393.657L395.829 344.135C395.904 343.222 395.615 342.316 395.023 341.617C394.432 340.917 393.587 340.48 392.674 340.403L381.881 339.498Z" fill="#449EF0"/>
<path d="M359.8 444.859H314.896V489.762H359.8V444.859Z" fill="#FFB8B8"/>
<path d="M368.533 441.019C369.861 441.019 370.938 439.942 370.938 438.613C370.938 437.285 369.861 436.208 368.533 436.208C367.204 436.208 366.127 437.285 366.127 438.613C366.127 439.942 367.204 441.019 368.533 441.019Z" fill="#191919"/>
<path d="M408.613 634.53L420.589 634.529L426.287 588.335L408.611 588.336L408.613 634.53Z" fill="#FFB6B6"/>
<path d="M405.643 628.622L424.575 627.492V635.603L442.574 648.034C443.463 648.648 444.133 649.53 444.485 650.551C444.837 651.572 444.854 652.68 444.533 653.711C444.211 654.743 443.568 655.644 442.698 656.284C441.828 656.925 440.776 657.27 439.695 657.27H417.156L413.271 649.247L411.754 657.27H403.256L405.643 628.622Z" fill="#191919"/>
<path d="M319.732 667.506L330.001 673.669L358.659 636.994L343.504 627.898L319.732 667.506Z" fill="#FFB6B6"/>
<path d="M320.226 660.912L337.04 669.686L332.865 676.641L341.9 696.562C342.347 697.546 342.467 698.647 342.243 699.704C342.02 700.761 341.464 701.719 340.658 702.438C339.851 703.157 338.836 703.599 337.76 703.7C336.685 703.801 335.605 703.556 334.679 703L315.353 691.4L316.152 682.521L310.722 688.62L303.435 684.246L320.226 660.912Z" fill="#191919"/>
<path d="M78.9192 663.485C78.801 663.485 78.6827 663.483 78.5634 663.478C77.1713 663.428 75.812 663.042 74.6011 662.353C73.3903 661.665 72.3637 660.694 71.6087 659.523C65.9538 651.071 59.0141 643.554 51.0403 637.243C46.2132 633.385 41.169 629.797 36.2912 626.327C23.707 617.38 11.856 608.952 5.27739 597.308C-9.06584 571.917 7.82543 536.55 31.9562 520.69C59.0222 502.901 94.6232 500.111 129.063 499.745C132.642 499.707 136.224 499.688 139.807 499.689C201.861 499.712 263.784 505.374 324.812 516.605C345.106 520.349 366.348 524.935 383.418 536.066C400.387 547.131 410.701 564.556 409.695 580.459C408.225 603.675 383.615 621.022 361.205 625.558C339.845 629.877 317.655 626.958 294.163 623.867C288.976 623.185 283.614 622.479 278.311 621.866C220.681 615.205 112.419 635.736 107.839 636.614L103.294 637.484L85.6631 660.173C84.87 661.207 83.8488 662.044 82.679 662.619C81.5092 663.193 80.2225 663.49 78.9192 663.485Z" fill="#449EF0"/>
<path d="M335.553 550.23H91.9697C90.564 550.23 89.216 549.671 88.2221 548.678C87.2282 547.684 86.6698 546.336 86.6698 544.93C86.6698 543.524 87.2282 542.176 88.2221 541.182C89.216 540.188 90.564 539.63 91.9697 539.63H335.553C336.959 539.63 338.307 540.188 339.301 541.182C340.295 542.176 340.853 543.524 340.853 544.93C340.853 546.336 340.295 547.684 339.301 548.678C338.307 549.671 336.959 550.23 335.553 550.23Z" fill="#FCFCFC"/>
<path d="M335.553 582.761H91.9697C91.2733 582.762 90.5835 582.626 89.9396 582.361C89.2958 582.096 88.7106 581.706 88.2174 581.214C87.7243 580.722 87.3329 580.138 87.0656 579.495C86.7982 578.852 86.6603 578.163 86.6595 577.467C86.6588 576.77 86.7953 576.08 87.0613 575.437C87.3273 574.793 87.7175 574.208 88.2096 573.716C88.7017 573.223 89.2861 572.832 89.9294 572.565C90.5727 572.299 91.2622 572.161 91.9586 572.161H335.553C336.958 572.163 338.304 572.722 339.296 573.716C340.288 574.71 340.846 576.057 340.846 577.461C340.846 578.865 340.288 580.212 339.296 581.206C338.304 582.2 336.958 582.759 335.553 582.761Z" fill="#FCFCFC"/>
<path d="M120.356 615.291H91.9697C90.5654 615.289 89.2192 614.73 88.2268 613.736C87.2345 612.743 86.6771 611.396 86.6771 609.991C86.6771 608.587 87.2345 607.24 88.2268 606.246C89.2192 605.253 90.5654 604.693 91.9697 604.691H120.356C121.76 604.693 123.106 605.253 124.099 606.246C125.091 607.24 125.648 608.587 125.648 609.991C125.648 611.396 125.091 612.743 124.099 613.736C123.106 614.73 121.76 615.289 120.356 615.291Z" fill="#FCFCFC"/>
<path d="M361.389 476.907L313.381 471.178L314.762 480.28C314.762 480.28 282.253 506.476 304.507 535.378L315.251 545.856L314.262 550.78H321.162L321.902 556.721L351.583 581.289L353.286 586.316H358.174L355.786 592.031L333.75 643.28L352.006 651.792L385.629 587.336L377.016 567.909L346.034 528.696L394.021 547.65L394.839 551.811L399.25 550.975L398.398 557.099L407.762 605.28L427.597 602.648L425.557 542.697C425.404 539.42 424.386 536.242 422.607 533.485C420.829 530.729 418.352 528.492 415.429 527.002C405.262 521.78 367.704 507.27 367.704 507.27L361.389 476.907Z" fill="#191919"/>
<path d="M342.159 371.891L333.121 360.273L320.228 359.714L318.942 370.641L312.553 373.587C306.175 397.82 305.19 423.158 309.667 447.813C310.524 448.62 311.149 449.639 311.48 450.768C311.81 451.897 311.834 453.093 311.547 454.233L311.133 455.884L311.172 455.945C312.531 458.09 312.992 460.683 312.456 463.165L300.777 483.917C325.578 494.025 343.759 475.175 360.602 450.472L371.026 414.389L342.159 371.891Z" fill="#3F3D56"/>
<path d="M369.331 438.693L371.765 414.349L339.45 366.513L338.121 367.41L370.111 414.767L367.735 438.533L369.331 438.693Z" fill="#191919"/>
<path d="M333.752 359.32C346.917 359.32 357.59 348.647 357.59 335.482C357.59 322.317 346.917 311.644 333.752 311.644C320.587 311.644 309.914 322.317 309.914 335.482C309.914 348.647 320.587 359.32 333.752 359.32Z" fill="#FFB8B8"/>
<path d="M336.817 306.409L333.826 306.504L332.81 306.537L321.427 306.898C311.337 307.218 303.449 316.679 303.809 328.031C296.438 335.917 299.027 345.422 305.395 355.541C316.34 356.552 327.094 359.065 337.354 363.012L338.596 356.831L341.686 364.821C344.244 365.962 346.786 367.218 349.309 368.588C345.986 355.095 344.366 341.579 346.017 330.987L351.23 330.822L351.049 325.117L353 330.766L362.451 330.466C362.347 327.203 361.602 323.993 360.258 321.018C358.914 318.043 356.997 315.363 354.616 313.129C352.236 310.895 349.439 309.152 346.385 307.999C343.331 306.846 340.08 306.306 336.817 306.409Z" fill="#191919"/>
<path d="M316.235 316.452C322.435 316.452 327.461 311.426 327.461 305.226C327.461 299.026 322.435 294 316.235 294C310.035 294 305.01 299.026 305.01 305.226C305.01 311.426 310.035 316.452 316.235 316.452Z" fill="#191919"/>
<path d="M389.987 394.243L398.188 383.992C399.586 382.244 400.251 380.021 400.041 377.793C399.832 375.564 398.765 373.504 397.065 372.047C395.918 371.064 394.534 370.4 393.049 370.119C391.565 369.839 390.033 369.954 388.607 370.451C387.181 370.948 385.91 371.811 384.922 372.953C383.933 374.096 383.262 375.477 382.975 376.96L380.766 388.375L372.383 411.009L382.442 416.039L389.987 394.243Z" fill="#FFB8B8"/>
<path d="M364.838 423.584L348.363 388.479C347.481 386.685 346.231 385.096 344.694 383.817C343.158 382.537 341.369 381.596 339.444 381.053C337.52 380.511 335.503 380.38 333.524 380.669C331.546 380.958 329.65 381.66 327.961 382.73C324.82 384.719 322.581 387.857 321.723 391.475C320.865 395.092 321.456 398.902 323.368 402.09L350.36 448.354C351.885 450.896 354.18 452.886 356.912 454.036C359.645 455.186 362.672 455.436 365.556 454.749C367.895 454.192 370.05 453.041 371.813 451.406C373.575 449.771 374.886 447.708 375.616 445.418L385.795 413.524L372.383 406.818L364.838 423.584Z" fill="#191919"/>
<path d="M217.086 245.19L244.116 242.126C249.973 229.095 252.561 214.832 251.655 200.574C236.962 221.29 205.879 220.958 185.224 235.736C178.817 240.394 173.54 246.435 169.786 253.41C166.031 260.384 163.893 268.115 163.532 276.028L154.607 293.133C167.319 294.524 180.181 293.144 192.307 289.086C204.434 285.028 215.537 278.389 224.851 269.627C230.027 264.659 234.557 259.06 238.335 252.961C227.698 249.74 217.086 245.19 217.086 245.19Z" fill="#F2F2F2"/>
<path d="M196.506 206.265L219.332 191.467C218.763 177.192 214.718 163.272 207.548 150.915C203.637 176.009 175.668 189.574 163.771 212.013C160.114 219.04 158.086 226.799 157.836 234.717C157.585 242.634 159.12 250.507 162.326 257.75L161.966 277.04C173.964 272.617 184.86 265.644 193.905 256.604C202.949 247.564 209.925 236.67 214.354 224.674C216.772 217.919 218.329 210.887 218.99 203.744C208.033 205.604 196.506 206.265 196.506 206.265Z" fill="#F2F2F2"/>
<path d="M97.4139 387.362C142.651 387.362 179.323 350.691 179.323 305.454C179.323 260.217 142.651 223.545 97.4139 223.545C52.1769 223.545 15.5051 260.217 15.5051 305.454C15.5051 350.691 52.1769 387.362 97.4139 387.362Z" fill="#FCFCFC"/>
<path d="M97.4139 388.363C81.0161 388.363 64.9866 383.5 51.3523 374.39C37.718 365.28 27.0914 352.331 20.8162 337.182C14.541 322.032 12.8992 305.362 16.0982 289.28C19.2972 273.197 27.1935 258.424 38.7884 246.829C50.3833 235.234 65.1562 227.338 81.2388 224.138C97.3215 220.939 113.992 222.581 129.141 228.856C144.291 235.131 157.239 245.758 166.35 259.392C175.46 273.026 180.322 289.056 180.323 305.454C180.298 327.435 171.555 348.508 156.012 364.051C140.469 379.595 119.395 388.338 97.4139 388.363ZM97.4139 224.545C81.4116 224.545 65.7687 229.291 52.4633 238.181C39.1579 247.071 28.7877 259.708 22.6639 274.492C16.5402 289.276 14.9379 305.544 18.0598 321.239C21.1817 336.933 28.8876 351.35 40.2029 362.665C51.5183 373.981 65.9349 381.686 81.6296 384.808C97.3244 387.93 113.592 386.328 128.377 380.204C143.161 374.08 155.797 363.71 164.687 350.404C173.577 337.099 178.323 321.456 178.323 305.454C178.298 284.003 169.766 263.437 154.598 248.269C139.43 233.101 118.865 224.569 97.4139 224.545Z" fill="#3F3D56"/>
<path d="M91.2814 338.189C91.1068 338.189 90.9321 338.183 90.7575 338.175C89.2148 338.1 87.7065 337.693 86.336 336.981C84.9655 336.269 83.7651 335.269 82.8173 334.049L69.129 316.451C68.2645 315.34 67.6274 314.07 67.254 312.713C66.8805 311.356 66.778 309.939 66.9525 308.542C67.1269 307.146 67.5747 305.797 68.2705 304.573C68.9662 303.35 69.8961 302.275 71.0072 301.411L71.4998 301.028C72.6107 300.163 73.8811 299.526 75.2385 299.152C76.5959 298.778 78.0137 298.676 79.4107 298.85C80.8077 299.025 82.1567 299.473 83.3804 300.169C84.6041 300.865 85.6786 301.796 86.5425 302.908C87.234 303.795 88.1089 304.523 89.1075 305.042C90.1062 305.56 91.205 305.857 92.3289 305.912C93.4527 305.966 94.5752 305.778 95.6195 305.359C96.6638 304.94 97.6053 304.3 98.3797 303.484L126.172 274.143C128.129 272.082 130.823 270.881 133.663 270.804C136.504 270.727 139.259 271.78 141.324 273.731L141.78 274.165C142.802 275.133 143.623 276.293 144.197 277.578C144.771 278.863 145.085 280.249 145.123 281.656C145.161 283.063 144.922 284.463 144.418 285.778C143.915 287.092 143.157 288.294 142.189 289.316L99.0583 334.841C98.0578 335.899 96.852 336.741 95.5148 337.317C94.1777 337.892 92.7372 338.189 91.2814 338.189Z" fill="#449EF0"/>
<path d="M54.5656 410.128L43.2056 411.393L32.4426 367.321L49.2076 365.453L54.5656 410.128Z" fill="#A0616A"/>
<path d="M129.405 211.99C129.053 211.638 128.67 211.296 128.289 210.971C125.358 208.54 122.295 206.271 119.114 204.176C115.514 201.778 111.465 199.331 106.883 196.803C104.666 195.579 102.323 194.329 99.8539 193.053C98.6169 192.414 97.3443 191.77 96.0361 191.121C95.9804 191.088 95.9231 191.059 95.8644 191.032L95.4858 190.839L67.9179 213.596L65.9596 215.135L71.0379 221.396C71.0379 221.396 70.5957 226.375 70.6062 226.378L65.565 238.957L65.5095 238.983L47.5493 247.18L29.0411 255.63L19.1006 260.17C16.7954 261.221 14.7222 262.719 13.0017 264.578C11.2811 266.437 9.94761 268.62 9.07876 270.999C8.16481 273.47 7.75195 276.099 7.86422 278.731C7.9765 281.364 8.61171 283.947 9.73275 286.332C9.95518 286.818 10.2049 287.305 10.4699 287.773L14.6006 313.745C17.0679 329.28 21.8657 344.353 28.8317 358.455L35.1406 382.767L36.0991 382.286L50.3679 375.139L54.1377 373.255L54.8494 356.919C54.9301 355.058 54.9419 353.186 54.8757 351.317C54.7781 348.259 54.4857 345.211 54.0003 342.19L45.8193 291.249C47.271 290.657 48.7032 290.063 50.1157 289.465C56.6631 286.726 62.8619 283.956 68.7119 281.157C87.7381 272.064 103.238 262.624 115.902 252.398C119.46 249.531 122.798 246.595 125.916 243.591C127.061 242.494 128.177 241.386 129.261 240.267C129.519 240.008 129.771 239.753 130.019 239.492C132.249 237.152 133.857 234.29 134.695 231.168C135.533 228.046 135.574 224.763 134.815 221.621C133.966 217.961 132.089 214.619 129.405 211.99Z" fill="#191919"/>
<path d="M53.6405 402.412L41.3437 403.772L39.4142 403.983L40.6698 411.285L26.3793 425.245C25.6722 425.935 25.2042 426.833 25.0436 427.807C24.883 428.782 25.0382 429.782 25.4866 430.662C25.935 431.542 26.6531 432.255 27.5359 432.698C28.4187 433.141 29.42 433.29 30.3934 433.123L50.6874 429.647L52.945 421.825L55.5491 428.813L63.1933 427.505L56.6308 402.085L53.6405 402.412Z" fill="#191919"/>
<path d="M65.3431 149.548L75.8726 138.381L61.0197 105.884L58.8104 94.4691C58.5234 92.9861 57.8522 91.6045 56.8639 90.4622C55.8756 89.3199 54.6048 88.4569 53.1785 87.9596C51.7522 87.4623 50.2204 87.348 48.7361 87.6282C47.2519 87.9084 45.8671 88.5732 44.7202 89.5562C43.0207 91.0129 41.9537 93.0729 41.7442 95.3015C41.5347 97.53 42.1992 99.7528 43.5975 101.501L51.7985 111.752L65.3431 149.548Z" fill="#A0616A"/>
<path d="M75.8726 133.381L63.8726 145.381L66.1688 162.927C66.8998 165.217 68.2101 167.28 69.9728 168.914C71.7354 170.549 73.8906 171.701 76.2293 172.258C79.1131 172.944 82.1406 172.695 84.8729 171.545C87.6052 170.395 89.9003 168.405 91.4254 165.863L118.417 119.599C120.33 116.411 120.92 112.601 120.062 108.984C119.204 105.366 116.965 102.228 113.825 100.238C112.135 99.1686 110.24 98.4664 108.261 98.1776C106.283 97.8888 104.265 98.0199 102.341 98.5623C100.416 99.1046 98.6275 100.046 97.0909 101.326C95.5543 102.605 94.3042 104.194 93.4222 105.988L76.9475 141.092L75.8726 133.381Z" fill="#E6E6E6"/>
<path d="M63.7841 310.458C63.1641 311.089 62.5421 311.713 61.913 312.338C60.6619 313.588 59.3926 314.826 58.1198 316.049C57.4797 316.661 56.8323 317.276 56.1905 317.881L56.1957 317.903L56.1533 317.921L56.1403 317.932L55.0729 318.483L52.4163 314.57L51.1911 312.768L49.4593 310.215L46.2869 305.546L29.5836 280.96L44.5635 273.227L45.7432 275.523L45.7505 275.521L46.334 276.659L57.2889 297.885L59.5259 302.225L59.5961 302.356L60.9399 304.947L62.0999 307.193L63.3931 309.703L63.7841 310.458Z" fill="#A0616A"/>
<path d="M60.6887 302.489L50.2612 309.147L48.624 310.19L52.9797 316.184L46.3369 335.025C46.0077 335.956 45.9849 336.968 46.2718 337.913C46.5588 338.858 47.1404 339.686 47.9317 340.277C48.7231 340.868 49.6826 341.19 50.6702 341.197C51.6578 341.204 52.6217 340.895 53.4209 340.314L70.0849 328.221L68.6504 320.207L74.0769 325.324L80.3544 320.77L63.2258 300.873L60.6887 302.489Z" fill="#191919"/>
<path d="M135.878 232.307C134.84 233.973 133.78 235.632 132.712 237.276C130.727 240.336 128.69 243.35 126.599 246.319C126.599 246.327 126.592 246.327 126.584 246.334C125.365 247.464 124.018 248.448 122.57 249.265C122.509 249.311 122.441 249.341 122.381 249.379C121.315 249.968 120.18 250.423 119.003 250.735C118.579 250.841 118.147 250.947 117.723 251.053C116.193 251.416 114.678 251.727 113.171 252C110.49 252.477 107.839 252.818 105.203 253.03C104.991 253.052 104.779 253.067 104.567 253.083C93.7283 253.878 83.1777 252.598 72.1651 250.5C66.7269 249.47 61.1752 248.235 55.4265 246.955C53.5482 246.531 51.6623 246.114 49.7536 245.698C49.6097 245.668 49.4582 245.63 49.3067 245.599C46.5801 245.001 43.808 244.41 40.9678 243.827C37.3928 243.092 39.2253 243.05 35.3929 242.376C35.3929 242.376 44.2352 251.355 45.7045 255.248C47.3405 260.035 48.6356 263.822 45.9014 271.706L54.3929 288.376L24.8725 293.381C8.60295 261.501 -4.39991 240.508 1.40868 228.143C1.43139 227.568 1.47688 226.984 1.5526 226.409C1.86115 223.792 2.6878 221.263 3.9843 218.969C5.28081 216.675 7.02122 214.662 9.10393 213.048C11.0997 211.489 13.3856 210.341 15.8288 209.673C18.272 209.005 20.8237 208.829 23.3354 209.155L29.1296 209.905L74.0661 207.722L75.8309 200.527L76.1565 200.405L86.5102 196.611L122.32 183.485L122.411 183.455L124.766 182.591L125.047 183.046C125.13 183.182 125.213 183.319 125.289 183.455C127.617 187.629 129.513 192.029 130.947 196.588C133.358 204.036 135.343 211.614 136.892 219.287C136.961 219.621 137.021 219.924 137.074 220.196L137.097 220.28C137.12 220.408 137.135 220.492 137.142 220.514C137.968 223.953 137.392 228.149 135.878 232.307Z" fill="#191919"/>
<path d="M128.323 92.3558L128.064 78.002L105.323 75.3558L102.937 87.4768L79.0367 109.937C62.0437 130.712 74.3919 145.038 75.1311 147.169L77.2326 173.365L78.5547 182.467L73.3929 207.376L138.545 221.352C140.631 204.131 138.308 188.13 124.706 175.25L131.579 153.864C135.064 148.281 137.248 141.985 137.971 135.443L138.218 133.207C144.292 114.284 140.694 107.913 128.323 92.3558Z" fill="#E6E6E6"/>
<path d="M160.228 47.4939C160.243 47.865 160.251 48.2362 160.251 48.5997C160.244 52.6112 159.289 56.5641 157.462 60.1356C155.636 63.707 152.99 66.7956 149.741 69.1489C146.493 71.5023 142.734 73.0536 138.771 73.676C134.808 74.2985 130.754 73.9745 126.94 72.7305L122.267 71.2081C122.229 71.1929 122.184 71.1854 122.146 71.1702L114.443 68.6557C114.418 68.3302 114.423 68.0032 114.458 67.6787C102.969 62.7707 118.851 46.6457 122.797 34.5348C123.411 32.6489 102.317 34.0577 103.317 32.4444C103.097 32.3308 102.878 32.2172 102.673 32.1035C106.236 26.4805 111.504 22.1437 117.706 19.7264C123.909 17.3092 130.722 16.9381 137.15 18.6672C137.317 18.7051 137.491 18.7581 137.658 18.8036C152.624 19.1747 160.486 29.6041 160.486 43.1464C160.485 44.5994 160.399 46.051 160.228 47.4939Z" fill="#191919"/>
<path d="M147.261 52.8259C145.253 58.9758 140.885 64.0764 135.117 67.0064C129.349 69.9365 122.654 70.4561 116.503 68.4511C115.807 68.2239 115.125 67.9664 114.458 67.6786C108.861 65.2794 104.363 60.8728 101.85 55.3253C99.337 49.7778 98.9903 43.4909 100.878 37.7007C101.477 35.857 102.296 34.0922 103.317 32.4443C106.453 27.3663 111.341 23.6141 117.058 21.8979C122.774 20.1818 128.921 20.6208 134.335 23.132C139.749 25.6431 144.055 30.0521 146.437 35.5243C148.819 40.9964 149.112 47.1521 147.261 52.8259Z" fill="#A0616A"/>
<path d="M122.263 71.2058C122.222 71.1955 122.182 71.1821 122.143 71.1658L114.443 68.6558C114.423 68.3258 100.283 77.6858 100.323 77.3558C100.543 74.8258 116.473 62.4858 118.853 59.6158C120.392 57.783 121.462 55.6033 121.971 53.2648C122.48 50.9262 122.413 48.4989 121.776 46.1921C121.138 43.8852 119.949 41.7681 118.311 40.0232C116.673 38.2782 114.635 36.9578 112.373 36.1758C112.304 36.1585 112.237 36.1351 112.173 36.1058C110.683 35.5858 109.253 35.0558 107.913 34.5258C107.253 31.7758 106.913 32.6858 105.323 30.3558C105.613 32.4758 102.923 34.0758 102.883 36.2158C102.333 35.9658 101.813 35.7058 101.313 35.4458C101.093 35.3258 100.883 35.2158 100.673 35.1058C99.1301 34.389 97.7823 33.3122 96.7427 31.9658C100.593 20.1358 115.323 10.6658 127.153 14.5358L131.623 15.9858C137.261 17.8159 141.945 21.8029 144.653 27.0758C147.914 29.5755 150.515 32.833 152.233 36.5658C162.013 56.2158 143.123 77.9058 122.263 71.2058Z" fill="#191919"/>
<path d="M154.608 38.3218C160.464 38.3218 165.212 33.5744 165.212 27.7182C165.212 21.8619 160.464 17.1146 154.608 17.1146C148.752 17.1146 144.005 21.8619 144.005 27.7182C144.005 33.5744 148.752 38.3218 154.608 38.3218Z" fill="#191919"/>
<path d="M289.323 49.3458C287.075 59.5616 282.576 69.1471 276.155 77.4042C269.733 85.6612 261.55 92.3816 252.203 97.0758C251.013 97.6658 249.803 98.2158 248.583 98.7258C248.693 93.7804 247.271 88.9219 244.513 84.8158C244.961 88.1445 245.015 91.5145 244.673 94.8558C244.486 96.7719 244.169 98.673 243.723 100.546C235.878 103.133 227.639 104.321 219.383 104.056C218.911 100.387 217.586 96.8795 215.513 93.8158C215.961 97.1445 216.015 100.514 215.673 103.856C207.374 103.182 199.267 101.011 191.743 97.4458C187.833 95.5858 183.993 93.2558 181.473 89.7358C178.123 85.0458 177.563 78.8558 178.383 73.1558C179.203 67.4458 181.253 61.9958 182.683 56.4158C184.113 50.8358 184.923 44.8658 183.243 39.3558C181.573 33.8358 176.883 28.9258 171.133 28.4958C168.513 28.2958 165.883 29.0158 163.263 28.7758C160.643 28.5258 157.803 26.7758 157.743 24.1458L160.253 20.0658C161.313 12.9258 164.953 5.8458 171.193 2.2158C177.423 -1.4242 186.383 -0.644195 190.833 5.03581C194.583 9.81581 194.443 16.4558 195.673 22.4058C198.533 36.2258 209.583 47.3458 222.423 53.2058C235.273 59.0558 249.733 60.2858 263.853 60.0458C268.693 59.9558 273.613 59.6958 278.213 58.1658C282.823 56.6258 287.123 53.6658 289.323 49.3458Z" fill="#191919"/>
<path d="M48.8401 113.074L44.6877 63.5519C44.5474 61.8574 45.0851 60.1765 46.1827 58.878C47.2803 57.5795 48.8482 56.7694 50.5423 56.6255L61.3354 55.7205C63.0298 55.5802 64.7107 56.1179 66.0092 57.2155C67.3077 58.3131 68.1178 59.881 68.2618 61.5751L72.4142 111.097C72.5544 112.791 72.0168 114.472 70.9192 115.771C69.8216 117.069 68.2537 117.879 66.5595 118.023L55.7665 118.928C54.0721 119.068 52.3912 118.531 51.0927 117.433C49.7942 116.336 48.984 114.768 48.8401 113.074Z" fill="#3F3D56"/>
<path d="M52.0171 59.0453C51.1042 59.123 50.2593 59.5595 49.6678 60.2592C49.0764 60.959 48.7866 61.8648 48.8621 62.7779L53.0146 112.3C53.0922 113.213 53.5288 114.057 54.2285 114.649C54.9283 115.24 55.834 115.53 56.7471 115.455L67.5402 114.55C68.4531 114.472 69.2979 114.035 69.8894 113.336C70.4809 112.636 70.7706 111.73 70.6951 110.817L66.5427 61.2953C66.4651 60.3824 66.0285 59.5375 65.3287 58.9461C64.629 58.3546 63.7232 58.0648 62.8101 58.1403L52.0171 59.0453Z" fill="#449EF0"/>
<path d="M70.2148 130.066L80.7226 126.056L74.6198 102.703L73.5505 91.126C73.4116 89.6219 72.8804 88.1806 72.0099 86.9462C71.1395 85.7117 69.9603 84.7273 68.5902 84.0913C67.2201 83.4554 65.7071 83.1901 64.2024 83.3221C62.6976 83.454 61.2539 83.9786 60.0154 84.8433C58.1802 86.1248 56.9145 88.0691 56.4856 90.266C56.0567 92.4629 56.4981 94.7405 57.7167 96.6181L64.8633 107.63L70.2148 130.066Z" fill="#A0616A"/>
<path d="M81.1373 121.885L67.1268 127.231L74.1007 159.976C74.6015 162.327 75.7014 164.509 77.2936 166.31C78.8859 168.112 80.9166 169.471 83.1888 170.256C85.9905 171.225 89.0278 171.276 91.8605 170.402C94.6931 169.528 97.1738 167.775 98.9429 165.396L130.379 122.029C132.598 119.045 133.562 115.313 133.066 111.628C132.57 107.944 130.653 104.599 127.724 102.309C126.149 101.077 124.332 100.191 122.392 99.7081C120.452 99.225 118.431 99.1558 116.462 99.5052C114.494 99.8545 112.621 100.614 110.965 101.736C109.309 102.857 107.908 104.314 106.853 106.012L86.9865 139.315L81.1373 121.885Z" fill="#E6E6E6"/>
<path opacity="0.2" d="M69.7423 139.512L76.824 168.271L78.2932 170.059C79.4569 171.475 80.9438 172.592 82.6287 173.314C84.3136 174.036 86.1473 174.343 87.9755 174.209C89.8038 174.075 91.5731 173.504 93.1348 172.544C94.6964 171.584 96.0047 170.263 96.9495 168.692L119.393 131.376L99.1581 159.375C98.0234 160.945 96.5088 162.201 94.7561 163.027C93.0034 163.852 91.07 164.219 89.1368 164.093C87.2037 163.968 85.3341 163.354 83.7029 162.308C82.0718 161.263 80.7326 159.821 79.8106 158.118L69.7423 139.512Z" fill="#191919"/>
</svg>
