<svg width="143" height="39" viewBox="0 0 143 39" fill="none" xmlns="http://www.w3.org/2000/svg">
<path d="M0.818182 7.72727H4.04545L10.5 18.5909H10.7727L17.2273 7.72727H20.4545L12.0455 21.4091V31H9.22727V21.4091L0.818182 7.72727ZM28.358 31.3636C26.7822 31.3636 25.3996 30.9886 24.2102 30.2386C23.0284 29.4886 22.1042 28.4394 21.4375 27.0909C20.7784 25.7424 20.4489 24.1667 20.4489 22.3636C20.4489 20.5455 20.7784 18.9583 21.4375 17.6023C22.1042 16.2462 23.0284 15.1932 24.2102 14.4432C25.3996 13.6932 26.7822 13.3182 28.358 13.3182C29.9337 13.3182 31.3125 13.6932 32.4943 14.4432C33.6837 15.1932 34.608 16.2462 35.267 17.6023C35.9337 18.9583 36.267 20.5455 36.267 22.3636C36.267 24.1667 35.9337 25.7424 35.267 27.0909C34.608 28.4394 33.6837 29.4886 32.4943 30.2386C31.3125 30.9886 29.9337 31.3636 28.358 31.3636ZM28.358 28.9545C29.5549 28.9545 30.5398 28.6477 31.3125 28.0341C32.0852 27.4205 32.6572 26.6136 33.0284 25.6136C33.3996 24.6136 33.5852 23.5303 33.5852 22.3636C33.5852 21.197 33.3996 20.1098 33.0284 19.1023C32.6572 18.0947 32.0852 17.2803 31.3125 16.6591C30.5398 16.0379 29.5549 15.7273 28.358 15.7273C27.161 15.7273 26.1761 16.0379 25.4034 16.6591C24.6307 17.2803 24.0587 18.0947 23.6875 19.1023C23.3163 20.1098 23.1307 21.197 23.1307 22.3636C23.1307 23.5303 23.3163 24.6136 23.6875 25.6136C24.0587 26.6136 24.6307 27.4205 25.4034 28.0341C26.1761 28.6477 27.161 28.9545 28.358 28.9545ZM51.3608 23.8636V13.5455H54.0426V31H51.3608V28.0455H51.179C50.7699 28.9318 50.1335 29.6856 49.2699 30.3068C48.4063 30.9205 47.3153 31.2273 45.9972 31.2273C44.9062 31.2273 43.9366 30.9886 43.0881 30.5114C42.2396 30.0265 41.5729 29.2992 41.0881 28.3295C40.6032 27.3523 40.3608 26.1212 40.3608 24.6364V13.5455H43.0426V24.4545C43.0426 25.7273 43.3987 26.7424 44.1108 27.5C44.8305 28.2576 45.7472 28.6364 46.8608 28.6364C47.5275 28.6364 48.2055 28.4659 48.8949 28.125C49.5919 27.7841 50.1752 27.2614 50.6449 26.5568C51.1222 25.8523 51.3608 24.9545 51.3608 23.8636ZM66.5 31H59.3182V7.72727H66.8182C69.0758 7.72727 71.0076 8.19318 72.6136 9.125C74.2197 10.0492 75.4508 11.3788 76.3068 13.1136C77.1629 14.8409 77.5909 16.9091 77.5909 19.3182C77.5909 21.7424 77.1591 23.8295 76.2955 25.5795C75.4318 27.322 74.1742 28.6629 72.5227 29.6023C70.8712 30.5341 68.8636 31 66.5 31ZM62.1364 28.5H66.3182C68.2424 28.5 69.8371 28.1288 71.1023 27.3864C72.3674 26.6439 73.3106 25.5871 73.9318 24.2159C74.553 22.8447 74.8636 21.2121 74.8636 19.3182C74.8636 17.4394 74.5568 15.822 73.9432 14.4659C73.3295 13.1023 72.4129 12.0568 71.1932 11.3295C69.9735 10.5947 68.4545 10.2273 66.6364 10.2273H62.1364V28.5ZM89.2727 31.3636C87.5909 31.3636 86.1402 30.9924 84.9205 30.25C83.7083 29.5 82.7727 28.4545 82.1136 27.1136C81.4621 25.7652 81.1364 24.197 81.1364 22.4091C81.1364 20.6212 81.4621 19.0455 82.1136 17.6818C82.7727 16.3106 83.6894 15.2424 84.8636 14.4773C86.0455 13.7045 87.4242 13.3182 89 13.3182C89.9091 13.3182 90.8068 13.4697 91.6932 13.7727C92.5795 14.0758 93.3864 14.5682 94.1136 15.25C94.8409 15.9242 95.4205 16.8182 95.8523 17.9318C96.2841 19.0455 96.5 20.4167 96.5 22.0455V23.1818H83.0455V20.8636H93.7727C93.7727 19.8788 93.5758 19 93.1818 18.2273C92.7955 17.4545 92.2424 16.8447 91.5227 16.3977C90.8106 15.9508 89.9697 15.7273 89 15.7273C87.9318 15.7273 87.0076 15.9924 86.2273 16.5227C85.4545 17.0455 84.8598 17.7273 84.4432 18.5682C84.0265 19.4091 83.8182 20.3106 83.8182 21.2727V22.8182C83.8182 24.1364 84.0455 25.2538 84.5 26.1705C84.9621 27.0795 85.6023 27.7727 86.4205 28.25C87.2386 28.7197 88.1894 28.9545 89.2727 28.9545C89.9773 28.9545 90.6136 28.8561 91.1818 28.6591C91.7576 28.4545 92.2538 28.1515 92.6705 27.75C93.0871 27.3409 93.4091 26.8333 93.6364 26.2273L96.2273 26.9545C95.9545 27.8333 95.4962 28.6061 94.8523 29.2727C94.2083 29.9318 93.4129 30.447 92.4659 30.8182C91.5189 31.1818 90.4545 31.3636 89.2727 31.3636ZM114.321 13.5455L107.866 31H105.139L98.6847 13.5455H101.594L106.412 27.4545H106.594L111.412 13.5455H114.321Z" fill="#191919"/>
<rect x="121" y="4" width="22" height="31" fill="#449EF0"/>
</svg>
